<svg width="1440" height="1024" viewBox="0 0 1440 1024" fill="none" xmlns="http://www.w3.org/2000/svg">
<g clip-path="url(#clip0_1122_2)">
<path opacity="0.154" fill-rule="evenodd" clip-rule="evenodd" d="M-302.117 132.166C-196.807 49.5755 -43.4636 98.4737 89.2122 80.8593C222.691 63.1418 374.463 -52.0166 482.778 27.9819C600.796 115.159 534.091 310.958 586.356 448.054C620.569 537.777 690.13 604.175 734.86 689.139C801.289 815.272 929.458 927.93 913.664 1069.6C898.158 1208.66 795.05 1372.73 656.49 1392.27C493.674 1415.24 389.579 1138.88 227.473 1166.37C53.4856 1195.87 29.4232 1545.07 -146.251 1528.42C-293.745 1514.43 -273.444 1263.83 -293.228 1117.01C-307.175 1013.64 -217.681 914.891 -242.649 813.609C-272.951 690.676 -434.323 626.159 -445.333 500.026C-456.974 366.668 -407.473 214.767 -302.117 132.154V132.166Z" fill="url(#paint0_linear_1122_2)"/>
<path opacity="0.154" fill-rule="evenodd" clip-rule="evenodd" d="M1091.79 59.0082C1240.28 39.2931 1371.02 -98.9563 1511.15 -45.994C1701.91 26.1057 1925.95 169.545 1923.99 373.528C1922.02 577.522 1661.03 655.926 1503.14 785.022C1371.3 892.822 1259.49 1083.43 1091.79 1053.94C925.765 1024.75 927.56 776.082 803.414 662.008C666.549 536.257 361.229 559.165 351.269 373.528C341.452 190.689 602.189 123.871 770.676 52.3081C873.119 8.79286 981.454 73.6552 1091.79 59.0082Z" fill="url(#paint1_linear_1122_2)"/>
</g>
<defs>
<linearGradient id="paint0_linear_1122_2" x1="70.5747" y1="1872.5" x2="1244.06" y2="763.373" gradientUnits="userSpaceOnUse">
<stop offset="1" stop-color="#BC52EE"/>
</linearGradient>
<linearGradient id="paint1_linear_1122_2" x1="350.996" y1="1057" x2="1995.97" y2="60.8487" gradientUnits="userSpaceOnUse">
<stop stop-color="#3245FF"/>
</linearGradient>
<clipPath id="clip0_1122_2">
<rect width="1440" height="1024" fill="white"/>
</clipPath>
</defs>
</svg>
